<svg xmlns="http://www.w3.org/2000/svg" viewBox="0 0 40 40">
  <defs>
    <linearGradient id="f" x1="0" y1="0" x2="1" y2="1">
      <stop offset="0" stop-color="#2dd4bf" />
      <stop offset=".55" stop-color="#0d9488" />
      <stop offset="1" stop-color="#115e59" />
    </linearGradient>
  </defs>
  <rect width="40" height="40" rx="11" fill="url(#f)" />
  <path
    d="M17.6 9.4h4.8a1.6 1.6 0 0 1 1.6 1.6v5.6H29a1.6 1.6 0 0 1 1.6 1.6v4.8A1.6 1.6 0 0 1 29 24.6h-5v5.6a1.6 1.6 0 0 1-1.6 1.6h-4.8a1.6 1.6 0 0 1-1.6-1.6v-5.6h-5a1.6 1.6 0 0 1-1.6-1.6v-4.8a1.6 1.6 0 0 1 1.6-1.6h5V11a1.6 1.6 0 0 1 1.6-1.6z"
    fill="#fff" />
</svg>
